<?xml version="1.0" standalone="no"?>
<!DOCTYPE svg PUBLIC "-//W3C//DTD SVG 20010904//EN"
 "http://www.w3.org/TR/2001/REC-SVG-20010904/DTD/svg10.dtd">
<svg version="1.0" xmlns="http://www.w3.org/2000/svg"
 width="129.000000pt" height="136.000000pt" viewBox="0 0 129.000000 136.000000"
 preserveAspectRatio="xMidYMid meet">

<g transform="translate(0.000000,136.000000) scale(0.100000,-0.100000)"
fill="#000000" stroke="none">
<path d="M360 1171 c-88 -14 -162 -69 -199 -151 -14 -30 -16 -83 -16 -355 0
-311 1 -321 22 -361 28 -53 105 -121 152 -134 20 -6 98 -14 174 -17 l137 -6 0
517 0 516 -112 -1 c-62 -1 -133 -5 -158 -8z m190 -501 l0 -440 -67 1 c-125 1
-160 11 -211 63 l-47 46 0 313 c0 443 -8 431 308 456 16 1 17 -26 17 -439z"/>
<path d="M342 945 c-49 -35 -44 -123 9 -150 35 -19 53 -19 89 0 49 25 58 101
19 144 -24 25 -84 28 -117 6z"/>
<path d="M752 668 l3 -513 95 0 c63 1 112 7 146 18 65 22 139 91 153 144 17
59 24 380 13 549 -12 178 -24 211 -100 262 -54 36 -126 51 -250 52 l-62 0 2
-512z m261 22 c43 -37 50 -69 25 -119 -50 -102 -191 -65 -191 50 0 35 6 48 32
71 43 38 89 38 134 -2z"/>
</g>
</svg>
